<?xml version="1.0" encoding="UTF-8" standalone="no"?>
<!-- Created with Inkscape (http://www.inkscape.org/) -->

<svg
   xmlns:dc="http://purl.org/dc/elements/1.1/"
   xmlns:cc="http://creativecommons.org/ns#"
   xmlns:rdf="http://www.w3.org/1999/02/22-rdf-syntax-ns#"
   xmlns:svg="http://www.w3.org/2000/svg"
   xmlns="http://www.w3.org/2000/svg"
   xmlns:xlink="http://www.w3.org/1999/xlink"
   xmlns:sodipodi="http://sodipodi.sourceforge.net/DTD/sodipodi-0.dtd"
   xmlns:inkscape="http://www.inkscape.org/namespaces/inkscape"
   width="1258.8502"
   height="362.69553"
   id="svg2"
   version="1.1"
   inkscape:version="0.48.4 r9939"
   sodipodi:docname="adventure.svg">
  <sodipodi:namedview
     inkscape:document-units="in"
     pagecolor="#ffffff"
     bordercolor="#666666"
     borderopacity="1.0"
     inkscape:pageopacity="0.0"
     inkscape:pageshadow="2"
     inkscape:zoom="0.89471954"
     inkscape:cx="861.87033"
     inkscape:cy="94.282576"
     inkscape:current-layer="layer1"
     id="namedview6"
     showgrid="false"
     inkscape:window-width="1546"
     inkscape:window-height="978"
     inkscape:window-x="330"
     inkscape:window-y="0"
     inkscape:window-maximized="0"
     showguides="true"
     inkscape:guide-bbox="true"
     inkscape:snap-bbox="false"
     inkscape:snap-bbox-edge-midpoints="false"
     inkscape:snap-global="true"
     inkscape:snap-midpoints="true"
     inkscape:object-paths="true"
     inkscape:object-nodes="true"
     inkscape:snap-smooth-nodes="true"
     inkscape:bbox-nodes="false"
     inkscape:snap-nodes="false"
     units="mm"
     fit-margin-top="0"
     fit-margin-left="0"
     fit-margin-right="0"
     fit-margin-bottom="0">
    <inkscape:grid
       originy="-394.67477px"
       originx="-46.443791px"
       type="xygrid"
       id="grid3816"
       empspacing="5"
       visible="true"
       enabled="true"
       snapvisiblegridlinesonly="true"
       spacingx="25px"
       spacingy="25px"
       dotted="true" />
  </sodipodi:namedview>
  <defs
     id="defs4">
    <inkscape:path-effect
       effect="skeletal"
       id="path-effect5305"
       is_visible="true"
       pattern="m -504.09546,245.23153 c 0,-2.76 2.24,-5 5,-5 2.76,0 5,2.24 5,5 0,2.76 -2.24,5 -5,5 -2.76,0 -5,-2.24 -5,-5 z"
       copytype="single_stretched"
       prop_scale="1"
       scale_y_rel="false"
       spacing="0"
       normal_offset="0"
       tang_offset="0"
       prop_units="false"
       vertical_pattern="false"
       fuse_tolerance="0" />
    <inkscape:path-effect
       effect="spiro"
       id="path-effect5303"
       is_visible="true" />
    <inkscape:path-effect
       fuse_tolerance="0"
       vertical_pattern="false"
       prop_units="false"
       tang_offset="0"
       normal_offset="0"
       spacing="0"
       scale_y_rel="false"
       prop_scale="1"
       copytype="single_stretched"
       pattern="m 46.443791,12.629683 c 0,-2.7600005 2.24,-5.0000005 5,-5.0000005 2.76,0 5,2.24 5,5.0000005 0,2.759999 -2.24,4.999999 -5,4.999999 -2.76,0 -5,-2.24 -5,-4.999999 z"
       is_visible="true"
       id="path-effect5296"
       effect="skeletal" />
    <inkscape:path-effect
       is_visible="true"
       id="path-effect5294"
       effect="spiro" />
    <inkscape:path-effect
       fuse_tolerance="0"
       vertical_pattern="false"
       prop_units="false"
       tang_offset="0"
       normal_offset="0"
       spacing="0"
       scale_y_rel="false"
       prop_scale="1"
       copytype="single_stretched"
       pattern="M 0,5 C 0,2.24 2.24,0 5,0 7.76,0 10,2.24 10,5 10,7.76 7.76,10 5,10 2.24,10 0,7.76 0,5 z"
       is_visible="true"
       id="path-effect5290"
       effect="skeletal" />
    <inkscape:path-effect
       is_visible="true"
       id="path-effect5288"
       effect="spiro" />
    <marker
       inkscape:stockid="Arrow2Mend"
       orient="auto"
       refY="0.0"
       refX="0.0"
       id="Arrow2Mend"
       style="overflow:visible;">
      <path
         id="path4254"
         style="fill-rule:evenodd;stroke-width:0.62500000;stroke-linejoin:round;"
         d="M 8.7185878,4.0337352 L -2.2072895,0.016013256 L 8.7185884,-4.0017078 C 6.9730900,-1.6296469 6.9831476,1.6157441 8.7185878,4.0337352 z "
         transform="scale(0.6) rotate(180) translate(0,0)" />
    </marker>
    <marker
       inkscape:stockid="Arrow1Send"
       orient="auto"
       refY="0.0"
       refX="0.0"
       id="Arrow1Send"
       style="overflow:visible;">
      <path
         id="path4242"
         d="M 0.0,0.0 L 5.0,-5.0 L -12.5,0.0 L 5.0,5.0 L 0.0,0.0 z "
         style="fill-rule:evenodd;stroke:#000000;stroke-width:1.0pt;"
         transform="scale(0.2) rotate(180) translate(6,0)" />
    </marker>
    <inkscape:path-effect
       fuse_tolerance="0"
       vertical_pattern="false"
       prop_units="false"
       tang_offset="0"
       normal_offset="0"
       spacing="0"
       scale_y_rel="false"
       prop_scale="1"
       copytype="single_stretched"
       pattern="m -2.2622309,-0.65557715 c 0,-2.76000005 2.24000007,-5.00000005 5.0000001,-5.00000005 2.76,0 4.9999996,2.24 4.9999996,5.00000005 0,2.76000015 -2.2399996,4.99999925 -4.9999996,4.99999925 -2.76000003,0 -5.0000001,-2.2399991 -5.0000001,-4.99999925 z"
       is_visible="true"
       id="path-effect3954"
       effect="skeletal" />
    <inkscape:path-effect
       is_visible="true"
       id="path-effect3952"
       effect="spiro" />
    <inkscape:path-effect
       fuse_tolerance="0"
       vertical_pattern="false"
       prop_units="false"
       tang_offset="0"
       normal_offset="0"
       spacing="0"
       scale_y_rel="false"
       prop_scale="1"
       copytype="single_stretched"
       pattern="M 0,5 C 0,2.24 2.24,0 5,0 7.76,0 10,2.24 10,5 10,7.76 7.76,10 5,10 2.24,10 0,7.76 0,5 z"
       is_visible="true"
       id="path-effect3948"
       effect="skeletal" />
    <inkscape:path-effect
       bendpath4="m 980.67712,213.01568 0,67.86693"
       bendpath3="m 980.67712,280.88261 141.38938,0"
       bendpath2="m 1122.0665,213.01568 0,67.86693"
       bendpath1="m 980.67712,213.01568 141.38938,0"
       xx="true"
       yy="true"
       is_visible="true"
       id="path-effect3900"
       effect="envelope" />
    <inkscape:path-effect
       tgtlength_rdm="0.3;1"
       tgtlength="100"
       tgtscale="10"
       tgt_places_rdmness="1;1"
       nbtangents="5"
       tremble_frequency="1"
       tremble_size="5;1"
       parallel_offset="5;1"
       ends_tolerance="0.1;1"
       strokeoverlap_rdm="0.3;1"
       strokeoverlap="0.3"
       strokelength_rdm="0.3;1"
       strokelength="100"
       nbiter_approxstrokes="5"
       is_visible="true"
       id="path-effect3898"
       effect="sketch" />
    <inkscape:path-effect
       effect="spiro"
       id="path-effect4986"
       is_visible="true" />
    <inkscape:path-effect
       effect="spiro"
       id="path-effect4982"
       is_visible="true" />
    <inkscape:path-effect
       effect="spiro"
       id="path-effect4780"
       is_visible="true" />
    <marker
       inkscape:stockid="Arrow1Lend"
       orient="auto"
       refY="0"
       refX="0"
       id="Arrow1Lend"
       style="overflow:visible">
      <path
         inkscape:connector-curvature="0"
         id="path4150"
         d="M 0,0 5,-5 -12.5,0 5,5 0,0 z"
         style="fill-rule:evenodd;stroke:#000000;stroke-width:1pt;marker-start:none"
         transform="matrix(-0.8,0,0,-0.8,-10,0)" />
    </marker>
    <marker
       inkscape:stockid="Arrow1Mend"
       orient="auto"
       refY="0"
       refX="0"
       id="Arrow1Mend"
       style="overflow:visible">
      <path
         inkscape:connector-curvature="0"
         id="path4156"
         d="M 0,0 5,-5 -12.5,0 5,5 0,0 z"
         style="fill-rule:evenodd;stroke:#000000;stroke-width:1pt;marker-start:none"
         transform="matrix(-0.4,0,0,-0.4,-4,0)" />
    </marker>
    <inkscape:path-effect
       effect="spiro"
       id="path-effect4142"
       is_visible="true" />
    <linearGradient
       y2="29.721901"
       x2="24.951799"
       y1="9.7986002"
       x1="5.04319"
       xlink:href="#id0"
       gradientUnits="userSpaceOnUse"
       id="id3" />
    <linearGradient
       y2="3.0678999"
       x2="3.0678999"
       y1="9.6519203"
       x1="9.6519203"
       xlink:href="#id0"
       gradientUnits="userSpaceOnUse"
       id="id2" />
    <linearGradient
       y2="12.1735"
       x2="12.1735"
       y1="0.54626799"
       x1="0.54630601"
       xlink:href="#id0"
       gradientUnits="userSpaceOnUse"
       id="id1" />
    <linearGradient
       y2="13.1222"
       x2="8.3643503"
       y1="26.3983"
       x1="21.6306"
       gradientUnits="userSpaceOnUse"
       id="id0">
      <stop
         id="stop3131"
         style="stop-color:#FFCC29"
         offset="0" />
      <stop
         id="stop3133"
         style="stop-color:#967B26"
         offset="1" />
    </linearGradient>
    <style
       id="style3128"
       type="text/css">
   
    .str0 {stroke:#373435;stroke-width:0.0758021}
    .fil3 {fill:url(#id0)}
    .fil0 {fill:url(#id1)}
    .fil1 {fill:url(#id2)}
    .fil2 {fill:url(#id3)}
   
  </style>
    <linearGradient
       y2="29.721901"
       x2="24.951799"
       y1="9.7986002"
       x1="5.04319"
       xlink:href="#id0-5"
       gradientUnits="userSpaceOnUse"
       id="id3-2" />
    <linearGradient
       y2="3.0678999"
       x2="3.0678999"
       y1="9.6519203"
       x1="9.6519203"
       xlink:href="#id0-5"
       gradientUnits="userSpaceOnUse"
       id="id2-0" />
    <linearGradient
       y2="12.1735"
       x2="12.1735"
       y1="0.54626799"
       x1="0.54630601"
       xlink:href="#id0-5"
       gradientUnits="userSpaceOnUse"
       id="id1-2" />
    <linearGradient
       y2="13.1222"
       x2="8.3643503"
       y1="26.3983"
       x1="21.6306"
       gradientUnits="userSpaceOnUse"
       id="id0-5">
      <stop
         id="stop4028"
         style="stop-color:#FFCC29"
         offset="0" />
      <stop
         id="stop4030"
         style="stop-color:#967B26"
         offset="1" />
    </linearGradient>
    <style
       id="style4025"
       type="text/css">
   
    .str0 {stroke:#373435;stroke-width:0.0758021}
    .fil3 {fill:url(#id0)}
    .fil0 {fill:url(#id1)}
    .fil1 {fill:url(#id2)}
    .fil2 {fill:url(#id3)}
   
  </style>
    <linearGradient
       inkscape:collect="always"
       xlink:href="#id0-5"
       id="linearGradient4102"
       gradientUnits="userSpaceOnUse"
       x1="0.54630601"
       y1="0.54626799"
       x2="12.1735"
       y2="12.1735" />
    <linearGradient
       inkscape:collect="always"
       xlink:href="#id0-5"
       id="linearGradient4104"
       gradientUnits="userSpaceOnUse"
       x1="9.6519203"
       y1="9.6519203"
       x2="3.0678999"
       y2="3.0678999" />
    <linearGradient
       inkscape:collect="always"
       xlink:href="#id0-5"
       id="linearGradient4106"
       gradientUnits="userSpaceOnUse"
       x1="5.04319"
       y1="9.7986002"
       x2="24.951799"
       y2="29.721901" />
    <linearGradient
       inkscape:collect="always"
       xlink:href="#id0-5"
       id="linearGradient4108"
       gradientUnits="userSpaceOnUse"
       x1="21.6306"
       y1="26.3983"
       x2="8.3643503"
       y2="13.1222" />
    <marker
       inkscape:stockid="Arrow1Lendt"
       orient="auto"
       refY="0"
       refX="0"
       id="Arrow1Lendt"
       style="overflow:visible">
      <path
         inkscape:connector-curvature="0"
         id="path5205"
         d="M 0,0 5,-5 -12.5,0 5,5 0,0 z"
         style="fill:#999999;fill-rule:evenodd;stroke:#999999;stroke-width:1pt;marker-start:none"
         transform="matrix(-0.8,0,0,-0.8,-10,0)" />
    </marker>
    <filter
       color-interpolation-filters="sRGB"
       id="filter3892"
       inkscape:collect="always">
      <feGaussianBlur
         id="feGaussianBlur3894"
         stdDeviation="1.8437891"
         inkscape:collect="always" />
    </filter>
    <marker
       inkscape:stockid="Arrow1LendtL"
       orient="auto"
       refY="0"
       refX="0"
       id="Arrow1LendtL"
       style="overflow:visible">
      <path
         inkscape:connector-curvature="0"
         id="path3142"
         d="M 0,0 5,-5 -12.5,0 5,5 0,0 z"
         style="stroke-width:1pt;marker-start:none;stroke:#ff0000;fill-rule:evenodd;fill:#ff0000"
         transform="matrix(-0.8,0,0,-0.8,-10,0)" />
    </marker>
    <marker
       inkscape:stockid="Arrow2MendL"
       orient="auto"
       refY="0.0"
       refX="0.0"
       id="Arrow2MendL"
       style="overflow:visible;">
      <path
         id="path5105"
         style="stroke-linejoin:round;stroke:#ff0000;stroke-width:0.62500000;fill:#ff0000;fill-rule:evenodd"
         d="M 8.7185878,4.0337352 L -2.2072895,0.016013256 L 8.7185884,-4.0017078 C 6.9730900,-1.6296469 6.9831476,1.6157441 8.7185878,4.0337352 z "
         transform="scale(0.6) rotate(180) translate(0,0)" />
    </marker>
    <marker
       inkscape:stockid="Arrow2MendLG"
       orient="auto"
       refY="0.0"
       refX="0.0"
       id="Arrow2MendLG"
       style="overflow:visible;">
      <path
         id="path3166"
         style="stroke-linejoin:round;fill-rule:evenodd;stroke:#ff0000;stroke-width:0.62500000;fill:#ff0000"
         d="M 8.7185878,4.0337352 L -2.2072895,0.016013256 L 8.7185884,-4.0017078 C 6.9730900,-1.6296469 6.9831476,1.6157441 8.7185878,4.0337352 z "
         transform="scale(0.6) rotate(180) translate(0,0)" />
    </marker>
  </defs>
  <metadata
     id="metadata8">
    <rdf:RDF>
      <cc:Work
         rdf:about="">
        <dc:format>image/svg+xml</dc:format>
        <dc:type
           rdf:resource="http://purl.org/dc/dcmitype/StillImage" />
        <dc:title />
      </cc:Work>
    </rdf:RDF>
  </metadata>
  <g
     transform="translate(-46.443791,-7.6296825)"
     inkscape:label="Layer 1"
     inkscape:groupmode="layer"
     id="layer1">
    <path
       inkscape:connector-curvature="0"
       id="rect3079"
       d="m 50.868885,140.86888 0,75 124.999995,0 0,-75 -124.999995,0 z m 374.999995,0 0,75 125,0 0,-75 -125,0 z m 375,0 0,75 125,0 0,-75 -125,0 z m -550,12.5 0,50 100,0 0,-50 -100,0 z m 375,0 0,50 100,0 0,-50 -100,0 z m 550.00002,62.5 0,100 125,0 0,-100 -125,0 z m -175,25 0,50 100,0 0,-50 -100,0 z m -950.000015,50.03125 0,75 124.999995,0 0,-75 -124.999995,0 z m 374.999995,0 0,75 125,0 0,-75 -125,0 z m 375,0 0,75 125,0 0,-75 -125,0 z m -550,12.5 0,50 100,0 0,-50 -100,0 z m 375,0 0,50 100,0 0,-50 -100,0 z"
       style="fill:#000000;fill-opacity:1;stroke:none;filter:url(#filter3892)" />
    <rect
       style="fill:#00ff00;fill-opacity:1;fill-rule:evenodd;stroke:#00d400"
       id="rect4075"
       width="125"
       height="100"
       x="1175"
       y="215" />
    <use
       x="0"
       y="0"
       xlink:href="#path4778"
       id="use4988"
       transform="translate(924.69828,88.046294)"
       width="990"
       height="765" />
    <rect
       style="fill:#ccaaff;fill-opacity:1;stroke:#aa87de"
       id="rect3080"
       width="100"
       height="50"
       x="1000"
       y="240" />
    <path
       style="fill:none;stroke:#000000;stroke-width:2.5;stroke-linecap:butt;stroke-linejoin:miter;stroke-miterlimit:4;stroke-opacity:1;stroke-dasharray:none;marker-end:url(#Arrow1Lend)"
       d="m 925,180 75,60"
       id="path4984"
       inkscape:path-effect="#path-effect4986"
       inkscape:original-d="m 925,180 75,60"
       inkscape:connector-curvature="0" />
    <path
       style="fill:none;stroke:#000000;stroke-width:2.5;stroke-linecap:butt;stroke-linejoin:miter;stroke-miterlimit:4;stroke-opacity:1;stroke-dasharray:none;marker-end:url(#Arrow1Lend)"
       d="M 923.22581,327.54001 1000,290"
       id="path4980"
       inkscape:path-effect="#path-effect4982"
       inkscape:original-d="M 923.22581,327.54001 1000,290"
       inkscape:connector-curvature="0" />
    <rect
       style="fill:#ff9955;fill-opacity:1;stroke:#ff7f2a"
       id="rect3818"
       width="125"
       height="75"
       x="50"
       y="140" />
    <text
       xml:space="preserve"
       style="font-size:40px;font-style:normal;font-variant:normal;font-weight:500;font-stretch:normal;text-align:center;line-height:125%;letter-spacing:0px;word-spacing:0px;text-anchor:middle;fill:#000000;fill-opacity:1;stroke:none;font-family:Computer Modern;-inkscape-font-specification:Computer Modern Medium"
       x="112.81343"
       y="189.72"
       id="text2984"
       sodipodi:linespacing="125%"><tspan
         sodipodi:role="line"
         id="tspan2986"
         x="112.81343"
         y="189.72">f.c</tspan></text>
    <rect
       style="fill:#99ff55;fill-opacity:1;stroke:#71c837"
       id="rect2992"
       width="100"
       height="50"
       x="250"
       y="152.5" />
    <text
       xml:space="preserve"
       style="font-size:40px;font-style:normal;font-variant:normal;font-weight:500;font-stretch:normal;text-align:center;line-height:125%;letter-spacing:0px;word-spacing:0px;text-anchor:middle;fill:#000000;fill-opacity:1;stroke:none;font-family:Computer Modern;-inkscape-font-specification:Computer Modern Medium"
       x="300.57343"
       y="185.32578"
       id="text2988"
       sodipodi:linespacing="125%"><tspan
         sodipodi:role="line"
         id="tspan2990"
         x="300.57343"
         y="185.32578">gcc</tspan></text>
    <flowRoot
       style="font-size:40px;font-style:normal;font-variant:normal;font-weight:500;font-stretch:normal;text-align:center;line-height:125%;letter-spacing:0px;word-spacing:0px;text-anchor:middle;fill:#000000;fill-opacity:1;stroke:none;font-family:URW Palladio L;-inkscape-font-specification:URW Palladio L Medium"
       id="flowRoot3005"
       xml:space="preserve"><flowRegion
         id="flowRegion3007"><rect
           y="113.20721"
           x="42.084259"
           height="179.62793"
           width="434.18637"
           id="rect3009" /></flowRegion><flowPara
         id="flowPara3011" /></flowRoot>    <rect
       y="152.5"
       x="625"
       height="50"
       width="100"
       id="rect3032"
       style="fill:#cccccc;fill-opacity:1;stroke:#b3b3b3" />
    <use
       x="0"
       y="0"
       xlink:href="#use4968"
       id="use4970"
       transform="translate(-175,0)"
       width="990"
       height="765" />
    <rect
       y="140"
       x="425"
       height="75"
       width="125"
       id="rect3003"
       style="fill:#ff9955;fill-opacity:1;stroke:#ff7f2a" />
    <text
       xml:space="preserve"
       style="font-size:40px;font-style:normal;font-variant:normal;font-weight:500;font-stretch:normal;text-align:center;line-height:125%;letter-spacing:0px;word-spacing:0px;text-anchor:middle;fill:#000000;fill-opacity:1;stroke:none;font-family:Computer Modern;-inkscape-font-specification:Computer Modern Medium"
       x="487.95343"
       y="189.72"
       id="text3020"
       sodipodi:linespacing="125%"><tspan
         sodipodi:role="line"
         id="tspan3022"
         x="487.95343"
         y="189.72">f.s</tspan></text>
    <flowRoot
       xml:space="preserve"
       id="flowRoot3024"
       style="font-size:40px;font-style:normal;font-variant:normal;font-weight:500;font-stretch:normal;text-align:center;line-height:125%;letter-spacing:0px;word-spacing:0px;text-anchor:middle;fill:#000000;fill-opacity:1;stroke:none;font-family:Computer Modern;-inkscape-font-specification:Computer Modern Medium"><flowRegion
         id="flowRegion3026"><rect
           id="rect3028"
           width="210.4213"
           height="123.17344"
           x="471.1384"
           y="117.313" /></flowRegion><flowPara
         id="flowPara3030" /></flowRoot>    <text
       xml:space="preserve"
       style="font-size:40px;font-style:normal;font-variant:normal;font-weight:500;font-stretch:normal;text-align:center;line-height:125%;letter-spacing:0px;word-spacing:0px;text-anchor:middle;fill:#000000;fill-opacity:1;stroke:none;font-family:Computer Modern;-inkscape-font-specification:Computer Modern Medium"
       x="675.17346"
       y="186.17999"
       id="text3034"
       sodipodi:linespacing="125%"><tspan
         sodipodi:role="line"
         x="675.17346"
         y="186.17999"
         id="tspan3038">as</tspan></text>
    <rect
       y="290.04001"
       x="50"
       height="75"
       width="125"
       id="rect3048"
       style="fill:#ffaaaa;fill-opacity:1;stroke:#de8787" />
    <text
       sodipodi:linespacing="125%"
       id="text3050"
       y="339.76001"
       x="112.81343"
       style="font-size:40px;font-style:normal;font-variant:normal;font-weight:500;font-stretch:normal;text-align:center;line-height:125%;letter-spacing:0px;word-spacing:0px;text-anchor:middle;fill:#000000;fill-opacity:1;stroke:none;font-family:Computer Modern;-inkscape-font-specification:Computer Modern Medium"
       xml:space="preserve"><tspan
         y="339.76001"
         x="112.81343"
         id="tspan3052"
         sodipodi:role="line">c.c</tspan></text>
    <rect
       y="302.54001"
       x="250"
       height="50"
       width="100"
       id="rect3054"
       style="fill:#99ff55;fill-opacity:1;stroke:#71c837" />
    <text
       sodipodi:linespacing="125%"
       id="text3056"
       y="335.36578"
       x="300.57343"
       style="font-size:40px;font-style:normal;font-variant:normal;font-weight:500;font-stretch:normal;text-align:center;line-height:125%;letter-spacing:0px;word-spacing:0px;text-anchor:middle;fill:#000000;fill-opacity:1;stroke:none;font-family:Computer Modern;-inkscape-font-specification:Computer Modern Medium"
       xml:space="preserve"><tspan
         y="335.36578"
         x="300.57343"
         id="tspan3058"
         sodipodi:role="line">gcc</tspan></text>
    <rect
       style="fill:#cccccc;fill-opacity:1;stroke:#b3b3b3"
       id="rect3066"
       width="100"
       height="50"
       x="625"
       y="302.54001" />
    <use
       x="0"
       y="0"
       xlink:href="#use4972"
       id="use4974"
       transform="translate(-175,1.4550781e-6)"
       width="990"
       height="765" />
    <rect
       style="fill:#ffaaaa;fill-opacity:1;stroke:#de8787"
       id="rect3060"
       width="125"
       height="75"
       x="425"
       y="290.04001" />
    <text
       sodipodi:linespacing="125%"
       id="text3062"
       y="339.76001"
       x="487.95343"
       style="font-size:40px;font-style:normal;font-variant:normal;font-weight:500;font-stretch:normal;text-align:center;line-height:125%;letter-spacing:0px;word-spacing:0px;text-anchor:middle;fill:#000000;fill-opacity:1;stroke:none;font-family:Computer Modern;-inkscape-font-specification:Computer Modern Medium"
       xml:space="preserve"><tspan
         y="339.76001"
         x="487.95343"
         id="tspan3064"
         sodipodi:role="line">c.s</tspan></text>
    <text
       sodipodi:linespacing="125%"
       id="text3068"
       y="336.22"
       x="675.17346"
       style="font-size:40px;font-style:normal;font-variant:normal;font-weight:500;font-stretch:normal;text-align:center;line-height:125%;letter-spacing:0px;word-spacing:0px;text-anchor:middle;fill:#000000;fill-opacity:1;stroke:none;font-family:Computer Modern;-inkscape-font-specification:Computer Modern Medium"
       xml:space="preserve"><tspan
         id="tspan3070"
         y="336.22"
         x="675.17346"
         sodipodi:role="line">as</tspan></text>
    <rect
       y="290.04001"
       x="800"
       height="75"
       width="125"
       id="rect3072"
       style="fill:#ffaaaa;fill-opacity:1;stroke:#de8787" />
    <text
       sodipodi:linespacing="125%"
       id="text3074"
       y="339.76001"
       x="862.81342"
       style="font-size:40px;font-style:normal;font-variant:normal;font-weight:500;font-stretch:normal;text-align:center;line-height:125%;letter-spacing:0px;word-spacing:0px;text-anchor:middle;fill:#000000;fill-opacity:1;stroke:none;font-family:Computer Modern;-inkscape-font-specification:Computer Modern Medium"
       xml:space="preserve"><tspan
         y="339.76001"
         x="862.81342"
         id="tspan3076"
         sodipodi:role="line">c.o</tspan></text>
    <text
       xml:space="preserve"
       style="font-size:40px;font-style:normal;font-variant:normal;font-weight:500;font-stretch:normal;text-align:center;line-height:125%;letter-spacing:0px;word-spacing:0px;text-anchor:middle;fill:#000000;fill-opacity:1;stroke:none;font-family:Computer Modern;-inkscape-font-specification:Computer Modern Medium"
       x="1049.0334"
       y="277.10001"
       id="text3082"
       sodipodi:linespacing="125%"><tspan
         sodipodi:role="line"
         id="tspan3084"
         x="1049.0334"
         y="277.10001">ld</tspan></text>
    <g
       style="fill-rule:evenodd"
       transform="matrix(1.8491484,0,0,1.8491484,1213.5922,219.98419)"
       id="g4077"
       inkscape:transform-center-y="28.313359">
      <path
         inkscape:connector-curvature="0"
         id="_208453392"
         class="fil0 str0"
         d="M 0.110709,4.93415 1.747349,4.574772 C 1.7891539,4.470241 1.853017,4.322502 1.897513,4.213309 L 0.971741,2.899009 C 1.039925,2.791976 1.0536452,2.75544 1.131987,2.651212 l 1.64961,0.29434 C 2.8602417,2.8649364 2.975764,2.752901 3.058692,2.669064 L 2.706326,1.100524 C 2.810251,1.027716 2.836933,0.999214 2.949196,0.932888 l 1.4114,0.903182 C 4.464104,1.7917257 4.613699,1.732411 4.7224,1.686664 L 4.997107,0.102744 C 5.120968,0.0752278 5.156519,0.059082 5.28561,0.0407758 l 0.958366,1.3746 c 0.112566,-0.0014 0.273494,0.0011 0.391442,3.79e-4 L 7.495393,0.05749481 c 0.12496,0.0220205 0.16396,0.0207319 0.290246,0.0532131 L 8.145017,1.7473879 c 0.104531,0.041805 0.252232,0.105668 0.361425,0.150164 l 1.3143,-0.92577199 c 0.107033,0.068184 0.143569,0.0818663 0.247835,0.16024599 l -0.29434,1.64961 c 0.080616,0.078607 0.192651,0.194167 0.276488,0.277095 l 1.5685,-0.352366 c 0.07285,0.103925 0.10131,0.130569 0.167636,0.24287 l -0.903182,1.41136 c 0.04434,0.103508 0.103697,0.253141 0.149406,0.361804 l 1.58396,0.274745 c 0.02752,0.123861 0.04366,0.159412 0.06193,0.288503 l -1.37456,0.958366 c 0.0014,0.112528 -0.0011,0.273494 -4.17e-4,0.391404 l 1.35826,0.859975 c -0.02202,0.12496 -0.02069,0.16396 -0.05321,0.290208 l -1.63668,0.359416 c -0.04177,0.104531 -0.10563,0.25227 -0.150164,0.361463 l 0.925772,1.31426 c -0.06815,0.107071 -0.08187,0.143607 -0.160246,0.2478351 L 9.9381573,9.7742719 c -0.078645,0.080578 -0.194167,0.192651 -0.277095,0.2764881 l 0.3523657,1.5685 c -0.1039627,0.07281 -0.1306067,0.101347 -0.2428697,0.167599 l -1.41144,-0.903145 c -0.10347,0.04434 -0.253103,0.103659 -0.361766,0.149406 l -0.274707,1.58396 c -0.123899,0.02748 -0.15945,0.04362 -0.288541,0.06189 l -0.958329,-1.37452 c -0.112566,0.0014 -0.273494,-0.0011 -0.391442,-4.55e-4 l -0.859975,1.35826 c -0.12496,-0.02198 -0.16396,-0.02069 -0.290208,-0.05317 l -0.359416,-1.63668 c -0.104531,-0.04184 -0.25227,-0.105668 -0.361425,-0.150164 l -1.3143,0.925772 c -0.107033,-0.06818 -0.143569,-0.08187 -0.247797,-0.160246 l 0.294264,-1.6496097 c -0.080578,-0.078645 -0.192613,-0.194167 -0.27645,-0.277057 l -1.56854,0.3523277 C 1.0276783,9.9095003 0.99917629,9.8828183 0.93288729,9.7705553 L 1.8360323,8.3591953 C 1.7917259,8.2556493 1.7323733,8.1060923 1.6866263,7.9973533 L 0.10266629,7.7226463 C 0.07515009,7.5987853 0.05908009,7.5632343 0.04077389,7.4341053 L 1.4152939,6.4757763 c -0.00136,-0.112566 0.0011,-0.273494 4.548e-4,-0.391404 l -1.35826,-0.859975 c 0.0219826,-0.12496 0.020694,-0.16396 0.0532131,-0.290246 z m 5.38279,-0.112301 c 0.665315,-0.375107 1.52396,-0.285774 2.09847,0.274366 0.69791,0.680476 0.712047,1.79784 0.031572,2.49575 C 6.943065,8.289875 5.825701,8.304012 5.127791,7.623537 4.553324,7.063397 4.442274,6.207287 4.800439,5.532687 L 4.17401,4.921949 4.867107,4.211114 5.493498,4.821852 z"
         style="fill:url(#linearGradient4102);fill-rule:evenodd;stroke:#373435;stroke-width:0.0758021" />
      <path
         inkscape:connector-curvature="0"
         id="_193575520"
         class="fil1"
         d="m 6.35991,9.93819 c -1.97624,0 -3.57828,-1.60204 -3.57828,-3.57828 0,-1.97624 1.60204,-3.57828 3.57828,-3.57828 1.97624,0 3.57828,1.60204 3.57828,3.57828 0,1.97624 -1.60204,3.57828 -3.57828,3.57828 z m 0,-1.73803 c -1.01632,0 -1.84025,-0.823931 -1.84025,-1.84025 0,-0.287972 0.066213,-0.560481 0.184161,-0.803199 l -0.643484,-0.634767 0.8068,-0.8245 0.643257,0.629764 C 5.764521,4.594706 6.053441,4.519662 6.359909,4.519662 c 1.01632,0 1.84025,0.823931 1.84025,1.84025 0,1.01632 -0.823931,1.84025 -1.84025,1.84025 z"
         style="fill:url(#linearGradient4104);fill-rule:evenodd" />
      <path
         inkscape:connector-curvature="0"
         id="_208453296"
         class="fil2 str0"
         d="m 14.727,8.93241 0.703368,1.51551 c 0.101537,0.0042 0.199208,0.01023 0.293089,0.01797 l 0.889462,-1.4153399 c 0.125149,0.016146 0.248821,0.037181 0.371203,0.062271 l 0.372909,1.6286109 c 0.09847,0.02524 0.192765,0.05139 0.283007,0.07849 l 1.16425,-1.1994908 c 0.119085,0.041805 0.235669,0.08812 0.350206,0.138111 l 0.02611,1.6705708 c 0.09104,0.0451 0.177832,0.09032 0.260494,0.13561 l 1.3882,-0.931229 c 0.107753,0.06564 0.212132,0.135193 0.313821,0.207887 l -0.321818,1.63945 c 0.07974,0.06314 0.155205,0.125377 0.226573,0.18689 l 1.55152,-0.622298 c 0.0918,0.08664 0.179462,0.176392 0.263791,0.268605 l -0.655613,1.53674 c 0.06477,0.07827 0.125642,0.154902 0.182759,0.229908 l 1.64695,-0.286115 c 0.07175,0.103811 0.138832,0.20982 0.202126,0.317535 l -0.960754,1.36686 c 0.04711,0.09005 0.09074,0.177642 0.130986,0.262806 l 1.67045,0.06261 c 0.04859,0.116508 0.09217,0.234114 0.131706,0.352632 l -1.22398,1.137219 c 0.02736,0.09794 0.05185,0.192652 0.07349,0.284373 l 1.62095,0.408536 c 0.02327,0.124012 0.0415,0.248138 0.05545,0.37234 l -1.43365,0.857853 c 0.0064,0.101461 0.01065,0.199208 0.01277,0.29343 l 1.50062,0.736569 c -0.003,0.126211 -0.01103,0.25136 -0.02319,0.375751 l -1.5807,0.541038 c -0.01478,0.100589 -0.03097,0.197086 -0.04851,0.289678 l 1.31467,1.0325 c -0.02915,0.122799 -0.06303,0.243514 -0.100779,0.362713 l -1.65863,0.20061 c -0.0354,0.09528 -0.07133,0.186284 -0.107677,0.273191 l 1.07124,1.28329 c -0.05408,0.114044 -0.112301,0.225132 -0.173966,0.333833 L 22.84582,24.79128 c -0.05446,0.08588 -0.108511,0.167409 -0.162141,0.244841 l 0.781027,1.47799 c -0.0766,0.100324 -0.156683,0.196896 -0.239611,0.29036 l -1.59685,-0.491387 c -0.07106,0.07266 -0.140878,0.141219 -0.209479,0.205803 l 0.456708,1.60807 c -0.09578,0.08217 -0.194205,0.160018 -0.294719,0.234229 l -1.45976,-0.812675 c -0.08467,0.05632 -0.16722,0.108852 -0.247721,0.157782 l 0.112339,1.66784 c -0.110747,0.06049 -0.223199,0.116129 -0.336941,0.167826 l -1.25892,-1.09841 c -0.09453,0.03745 -0.18617,0.07171 -0.275124,0.102788 l -0.236882,1.6548 c -0.120867,0.03616 -0.242453,0.06724 -0.364457,0.09407 l -1.00301,-1.33609 c -0.100286,0.01694 -0.19701,0.03138 -0.290474,0.04332 l -0.575755,1.56941 c -0.125756,0.01019 -0.251095,0.01531 -0.376054,0.01626 l -0.703368,-1.51551 c -0.101537,-0.0042 -0.199208,-0.01023 -0.293089,-0.01797 l -0.889462,1.41534 c -0.125149,-0.01615 -0.248821,-0.03718 -0.371203,-0.06227 l -0.372909,-1.62861 c -0.09847,-0.02524 -0.192765,-0.05139 -0.283007,-0.07849 l -1.16425,1.19949 c -0.119085,-0.04181 -0.235669,-0.08812 -0.350206,-0.138111 l -0.02611,-1.67057 c -0.09104,-0.0451 -0.177832,-0.09032 -0.260494,-0.13561 l -1.3881997,0.931229 c -0.107753,-0.06564 -0.212132,-0.135193 -0.313821,-0.207887 l 0.321818,-1.63945 c -0.079744,-0.06314 -0.155205,-0.125377 -0.226573,-0.18689 l -1.55152,0.622298 c -0.091796,-0.08664 -0.179462,-0.176392 -0.263791,-0.268605 l 0.655613,-1.53674 c -0.064773,-0.07827 -0.125642,-0.154902 -0.182759,-0.229908 l -1.64695,0.286115 c -0.071747,-0.103811 -0.138832,-0.20982 -0.202126,-0.317535 l 0.960754,-1.36686 c -0.047111,-0.09005 -0.090735,-0.177642 -0.130986,-0.262806 l -1.67045,-0.06261 c -0.048589,-0.116508 -0.092175,-0.234115 -0.131706,-0.352632 l 1.22398,-1.13722 c -0.027365,-0.09794 -0.051849,-0.192651 -0.07349,-0.284372 l -1.62095,-0.408536 c -0.023271,-0.124012 -0.041502,-0.248138 -0.055449,-0.37234 l 1.43365,-0.857853 c -0.00641,-0.101461 -0.01065,-0.199208 -0.012773,-0.29343 l -1.50062,-0.736569 c 0.00303,-0.126211 0.011029,-0.25136 0.023195,-0.375751 l 1.5807,-0.541038 c 0.014781,-0.100589 0.030965,-0.197086 0.048513,-0.289678 l -1.31467,-1.0325 c 0.029146,-0.122799 0.063029,-0.243514 0.100779,-0.362713 l 1.65863,-0.20061 c 0.0354,-0.09528 0.07133,-0.186284 0.107677,-0.273191 l -1.07124,-1.28329 c 0.054085,-0.114044 0.112301,-0.225132 0.173966,-0.333833 l 1.66408,0.148648 c 0.054464,-0.08588 0.108511,-0.167409 0.162141,-0.244841 L 6.53029,13.006407 c 0.076598,-0.100324 0.156683,-0.196896 0.239611,-0.29036 l 1.59685,0.491387 c 0.071064,-0.07266 0.140878,-0.141219 0.209479,-0.205803 l -0.456708,-1.60807 c 0.095776,-0.08217 0.194205,-0.160018 0.294719,-0.234229 l 1.45976,0.812675 c 0.084671,-0.05632 0.16722,-0.108852 0.247721,-0.157782 l -0.112339,-1.66784 c 0.110747,-0.06049 0.223199,-0.116129 0.336941,-0.167826 l 1.25892,1.09841 c 0.09452,-0.03745 0.18617,-0.07171 0.275124,-0.102788 l 0.236882,-1.6548 c 0.120867,-0.036158 0.242453,-0.067236 0.364457,-0.09407 l 1.00301,1.33609 c 0.100286,-0.01694 0.19701,-0.03138 0.290474,-0.04332 L 14.350946,8.9486696 C 14.476702,8.9384742 14.602041,8.9333576 14.727,8.93241 z m -0.22589,7.22967 0.992781,0 0,1.06987 c 1.18528,0.231386 2.0799,1.2753 2.0799,2.5283 0,1.42284 -1.15344,2.57629 -2.57629,2.57629 -1.42284,0 -2.57629,-1.15344 -2.57629,-2.57629 0,-1.25301 0.894617,-2.29692 2.0799,-2.5283 l 0,-1.06987 z"
         style="fill:url(#linearGradient4106);fill-rule:evenodd;stroke:#373435;stroke-width:0.0758021" />
      <path
         inkscape:connector-curvature="0"
         id="_193574560"
         class="fil3"
         d="m 14.9975,26.3959 c -3.66473,0 -6.63561,-2.97088 -6.63561,-6.63561 0,-3.66473 2.97088,-6.63561 6.63561,-6.63561 3.66473,0 6.63561,2.97088 6.63561,6.63561 0,3.66473 -2.97088,6.63561 -6.63561,6.63561 z m -0.01084,-3.95645 c 1.47204,0 2.66539,-1.19335 2.66539,-2.66539 0,-1.2734 -0.893101,-2.33808 -2.08706,-2.60229 l 0,-1.08098 -1.15666,0 0,1.08098 c -1.19396,0.264208 -2.08706,1.32889 -2.08706,2.60229 0,1.47204 1.19335,2.66539 2.66539,2.66539 z"
         style="fill:url(#linearGradient4108);fill-rule:evenodd" />
    </g>
    <text
       sodipodi:linespacing="125%"
       id="text4091"
       y="301.6955"
       x="1237.8534"
       style="font-size:40px;font-style:normal;font-variant:normal;font-weight:500;font-stretch:normal;text-align:center;line-height:125%;letter-spacing:0px;word-spacing:0px;text-anchor:middle;fill:#000000;fill-opacity:1;fill-rule:evenodd;stroke:none;font-family:Computer Modern;-inkscape-font-specification:Computer Modern Medium"
       xml:space="preserve"><tspan
         y="301.6955"
         x="1237.8534"
         id="tspan4093"
         sodipodi:role="line">a.out</tspan></text>
    <path
       style="stroke-linejoin:miter;marker-end:url(#Arrow2MendLG);stroke-opacity:1;fill-opacity:1;stroke:#ff0000;stroke-linecap:round;stroke-miterlimit:4;stroke-dasharray:none;stroke-width:5;fill:#ff0000;opacity:0.75"
       d="M 940.07944,77.001771 1022.935,199.22701"
       id="path4140"
       inkscape:connector-curvature="0"
       sodipodi:nodetypes="cc" />
    <path
       style="fill:none;stroke:#000000;stroke-width:2.5;stroke-linecap:butt;stroke-linejoin:miter;stroke-miterlimit:4;stroke-opacity:1;stroke-dasharray:none;marker-end:url(#Arrow1Lend)"
       d="m 175,177.5 75,0"
       id="path4778"
       inkscape:path-effect="#path-effect4780"
       inkscape:original-d="m 175,177.5 75,0"
       inkscape:connector-curvature="0" />
    <use
       x="0"
       y="0"
       xlink:href="#path4778"
       id="use4966"
       transform="translate(175,0)"
       width="990"
       height="765" />
    <rect
       style="fill:#ff9955;fill-opacity:1;stroke:#ff7f2a"
       id="rect3042"
       width="125"
       height="75"
       x="800"
       y="140" />
    <use
       x="0"
       y="0"
       xlink:href="#path4778"
       id="use4968"
       transform="translate(550,0)"
       width="990"
       height="765" />
    <use
       x="0"
       y="0"
       xlink:href="#use4970"
       id="use4972"
       transform="translate(175,150.04001)"
       width="990"
       height="765" />
    <use
       x="0"
       y="0"
       xlink:href="#use4974"
       id="use4976"
       transform="translate(-200,1.4550781e-6)"
       width="990"
       height="765" />
    <use
       x="0"
       y="0"
       xlink:href="#use4976"
       id="use4978"
       transform="translate(-175,1.4550781e-6)"
       width="990"
       height="765" />
    <path
       sodipodi:nodetypes="csssssaaaac"
       inkscape:connector-curvature="0"
       d="m 956.11698,234.76177 c -0.13861,-0.26866 1.16189,-1.28923 3.83604,-2.92383 2.67415,-1.6346 6.72521,-3.88097 12.13453,-6.46347 5.40932,-2.5825 12.18072,-5.49927 20.28852,-8.36724 8.10783,-2.86797 17.55553,-5.68541 28.25503,-7.98849 6.5363,-1.4136 13.582,-2.64075 21.0869,-3.37546 7.505,-0.7347 15.4697,-0.97752 23.806,-0.30433 7.1174,0.57064 14.5066,1.86742 21.8704,4.15127 7.3637,2.28385 14.702,5.55501 21.6161,10.10464 8.3452,5.48573 16.0254,13.01307 21.163,22.66522 4.1607,7.87349 6.3787,17.04459 5.8423,26.42548 -0.525,9.04945 -3.7171,18.12745 -9.5454,25.62097 -6.1115,7.70744 -14.4927,13.25856 -23.4567,16.82597 -8.6863,3.4872 -17.7819,5.41093 -26.7156,6.98437 -4.0953,0.73657 -8.2373,1.42802 -12.4217,2.04358 -13.3763,1.96776 -26.7833,3.08146 -40.0376,2.56378 -7.3752,-0.25597 -14.8133,-1.1218 -21.9802,-2.87258 -7.1668,-1.75078 -14.062,-4.38681 -20.39749,-8.12582 -6.59784,-3.9325 -12.39821,-9.13834 -16.7704,-15.35619 -4.53255,-6.44675 -7.3468,-13.98179 -7.95483,-21.69405 -0.57305,-7.9758 1.20537,-15.71141 4.46041,-22.41282 3.4052,-7.01223 8.24493,-12.90597 13.65469,-17.6624 7.93822,-6.90021 16.70226,-11.49066 25.37012,-14.93477 8.6679,-3.44411 17.2415,-5.74088 25.1523,-7.66912 0,0 0,0 0,0 25.2302,-6.27694 45.9386,-9.7474 60.2774,-11.63051 7.1694,-0.94155 12.7526,-1.48337 16.5509,-1.72419 3.7982,-0.24081 5.8116,-0.18264 5.8576,0.1486 0.046,0.33124 -1.8772,0.9204 -5.5724,1.78503 -3.6951,0.86462 -9.1624,2.00675 -16.193,3.51625 -14.0612,3.019 -34.3951,7.4963 -59.1389,14.57233 0,0 0,10e-6 0,10e-6 -7.7202,2.24835 -15.9485,4.73426 -24.0125,8.13877 -8.06404,3.40452 -15.96487,7.72588 -22.67666,14.0281 -4.60597,4.26964 -8.65711,9.36433 -11.3156,15.18904 -2.52819,5.5418 -3.89219,11.79292 -3.3089,17.90848 0.51055,5.91901 2.8739,11.86583 6.53569,17.00494 3.54808,4.98048 8.42575,9.21608 14.0007,12.50648 5.34138,3.18961 11.34444,5.40176 17.74707,6.87566 6.4027,1.4739 13.2047,2.20991 20.0932,2.49994 12.4356,0.46569 25.2146,-0.64816 38.2007,-2.56004 4.0624,-0.59807 8.1065,-1.26674 12.1278,-1.97544 8.7583,-1.57689 17.184,-3.28021 24.761,-6.34581 7.7465,-3.16564 14.7928,-7.6277 19.4895,-13.66263 4.581,-5.74167 7.1869,-12.99652 7.696,-20.19211 0.5369,-7.48086 -1.2084,-15.03741 -4.5227,-21.5599 -4.0544,-8.05067 -10.623,-14.61688 -17.8692,-19.64285 -6.0254,-4.17414 -12.5771,-7.24043 -19.2487,-9.45469 -6.6716,-2.21425 -13.4632,-3.57654 -20.0674,-4.3106 -7.7546,-0.85678 -15.2903,-0.84198 -22.4816,-0.36555 -7.1914,0.47643 -14.0387,1.41511 -20.4557,2.52293 -10.5031,1.82409 -19.8517,4.13212 -27.94422,6.48136 -8.09248,2.34925 -14.93227,4.73811 -20.47358,6.7937 -5.54132,2.0556 -9.78794,3.77603 -12.69537,4.88442 -2.90742,1.1084 -4.47894,1.60223 -4.61755,1.33357 0,0 0,0 0,0 z"
       id="path3950"
       inkscape:original-d="m 956.11698,234.76177 c 21.236,5.80132 28.10779,-20.8251 65.12242,-22.61804 38.4593,-1.86257 106.7212,6.33151 85.3164,11.09201 -36.5079,8.11951 12.6283,15.23927 19.5161,21.15404 25.4924,21.89115 10.0358,45.01877 -3.4382,46.89923 -38.3847,5.35706 -35.2525,16.06564 -47.2114,21.90939 -14.9423,7.3015 -34.3184,9.21191 -51.3939,4.57142 -24.33295,-6.61277 -55.27127,-20.22244 -62.73979,-43.46783 -4.30661,-13.40408 6.90866,-27.10925 16.3698,-36.58637 12.32606,-12.3469 31.64889,-16.84956 48.60579,-22.38538 26.4433,-8.63284 81.7951,-16.53986 81.7951,-16.53986"
       inkscape:path-effect="#path-effect3952;#path-effect3954"
       style="opacity:0.75;fill:#ff0000;fill-rule:nonzero;stroke:#ff0000;fill-opacity:0.99042821000000003;stroke-opacity:1" />
    <text
       xml:space="preserve"
       style="font-size:40px;font-style:normal;font-variant:normal;font-weight:500;font-stretch:normal;text-align:center;line-height:125%;letter-spacing:0px;word-spacing:0px;text-anchor:middle;fill:#000000;fill-opacity:1;stroke:none;font-family:Computer Modern;-inkscape-font-specification:Computer Modern Medium"
       x="862.81342"
       y="189.72"
       id="text3044"
       sodipodi:linespacing="125%"><tspan
         sodipodi:role="line"
         id="tspan3046"
         x="862.81342"
         y="189.72">f.o</tspan></text>
    <g
       id="text3412"
       style="font-size:64px;font-style:normal;font-variant:normal;font-weight:normal;font-stretch:normal;text-align:center;line-height:125%;letter-spacing:0px;word-spacing:0px;writing-mode:lr-tb;text-anchor:middle;fill:#ff0000;fill-opacity:1;stroke:none;font-family:Permanent Marker;-inkscape-font-specification:Permanent Marker;opacity:0.75">
      <path
         id="path3098"
         style="line-height:125%;font-family:Permanent Marker;-inkscape-font-specification:Permanent Marker;fill:#ff0000;fill-opacity:1"
         d="m 800.11914,64.006828 c -0.16667,-0.166664 -0.3125,-0.354164 -0.4375,-0.5625 -0.125,-0.249997 -0.22917,-0.562496 -0.3125,-0.9375 -0.58333,-0.708329 -1.04167,-1.520828 -1.375,-2.4375 -0.33333,-0.916659 -0.5625,-1.854158 -0.6875,-2.8125 -0.125,-0.99999 -0.14583,-1.999989 -0.0625,-3 0.0833,-0.999987 0.22917,-1.937486 0.4375,-2.8125 0.125,-0.416651 0.22917,-0.854151 0.3125,-1.3125 0.20833,-0.791649 0.41667,-1.562482 0.625,-2.3125 0.20833,-0.791647 0.52083,-1.43748 0.9375,-1.9375 -0.16667,-0.458312 -0.14584,-0.958312 0.0625,-1.5 0.20833,-0.541644 0.41666,-1.041643 0.625,-1.5 0.0833,-0.124976 0.14583,-0.229143 0.1875,-0.3125 0.0417,-0.124976 0.0833,-0.229142 0.125,-0.3125 0.5,-1.458308 0.97916,-2.854139 1.4375,-4.1875 0.49999,-1.37497 0.97916,-2.687469 1.4375,-3.9375 0.83333,-2.291632 1.62499,-4.54163 2.375,-6.75 0.79166,-2.208292 1.49999,-4.562456 2.125,-7.0625 0.33332,-0.249953 0.62499,-0.41662 0.875,-0.5 0.0833,-0.04162 0.18749,-0.08329 0.3125,-0.125 0.12499,-0.04162 0.27082,-0.06245 0.4375,-0.0625 0.87499,0.45838 1.89582,0.895879 3.0625,1.3125 1.20832,0.375045 2.22915,0.562545 3.0625,0.5625 l 1.0625,0.9375 c 0.54165,0.625044 0.99998,1.29171 1.375,2 0.41665,0.666708 0.54165,1.541707 0.375,2.625 -0.25002,0.375039 -0.45835,0.604206 -0.625,0.6875 -0.25002,0.958371 -0.52085,1.812537 -0.8125,2.5625 -0.29169,0.708369 -0.58335,1.395868 -0.875,2.0625 -0.33335,0.750033 -0.64585,1.500033 -0.9375,2.25 -0.29168,0.750031 -0.54168,1.666697 -0.75,2.75 -0.25002,0.291696 -0.41668,0.541695 -0.5,0.75 -0.0417,0.208362 -0.10418,0.416695 -0.1875,0.625 -0.0833,0.250028 -0.18752,0.520861 -0.3125,0.8125 -0.12502,0.250027 -0.31252,0.479193 -0.5625,0.6875 -0.16668,1.291692 -0.41668,2.354191 -0.75,3.1875 -0.33335,0.791689 -0.66668,1.583355 -1,2.375 -0.58335,1.458353 -1.12501,2.916685 -1.625,4.375 -0.50001,1.416682 -0.79168,3.04168 -0.875,4.875 0.49999,-0.124988 0.95832,-0.187488 1.375,-0.1875 0.54165,1.2e-5 1.06249,0.08335 1.5625,0.25 1.49998,-0.749988 3.12498,-1.208321 4.875,-1.375 1.79165,-0.166654 3.56248,-0.27082 5.3125,-0.3125 1.45831,1.3e-5 2.81247,-0.06249 4.0625,-0.1875 0.41664,0.29168 0.68747,0.458346 0.8125,0.5 0.12497,1.3e-5 0.3333,1.3e-5 0.625,0 0.12497,1.3e-5 0.24997,1.3e-5 0.375,0 0.12497,1.3e-5 0.29164,0.02085 0.5,0.0625 0.5833,0.583346 1.1458,1.000012 1.6875,1.25 0.54163,0.208345 1.12497,0.416678 1.75,0.625 0.54163,0.208344 1.06246,0.43751 1.5625,0.6875 0.54163,0.208343 1.06246,0.50001 1.5625,0.875 l 0.5625,3.1875 c 0.33329,0.458339 0.47913,0.770839 0.4375,0.9375 -4e-5,0.333338 -0.0834,0.625005 -0.25,0.875 l 0.125,0.8125 c -0.7917,0.16667 -1.31254,0.35417 -1.5625,0.5625 -0.25004,0.166669 -0.52087,0.395836 -0.8125,0.6875 -0.45837,0.04167 -0.89587,0.0625 -1.3125,0.0625 -0.83337,2e-6 -1.68753,0.125002 -2.5625,0.375 -1.25003,-0.458331 -2.62503,-0.687497 -4.125,-0.6875 -0.58336,3e-6 -1.18753,0.02084 -1.8125,0.0625 -0.58336,0.04167 -1.16669,0.104169 -1.75,0.1875 -0.62502,0.08334 -1.25002,0.166669 -1.875,0.25 -0.62502,0.04167 -1.25002,0.0625 -1.875,0.0625 -0.50002,0.08334 -0.85419,0.145835 -1.0625,0.1875 -0.20835,0.04167 -0.41669,0.104168 -0.625,0.1875 -1.41668,0.458334 -2.95835,0.916667 -4.625,1.375 -1.62501,0.458333 -3.27084,0.6875 -4.9375,0.6875 -2.45834,0 -4.43751,-0.625 -5.9375,-1.875 -0.16667,-0.374998 -0.29167,-0.624998 -0.375,-0.75 -0.0833,-0.124998 -0.16667,-0.270831 -0.25,-0.4375" />
      <path
         id="path3100"
         style="line-height:125%;font-family:Permanent Marker;-inkscape-font-specification:Permanent Marker;fill:#ff0000;fill-opacity:1"
         d="m 850.30664,61.944328 c 0.20832,1.250003 0.12499,2.229169 -0.25,2.9375 -0.33335,0.708334 -0.83334,1.229167 -1.5,1.5625 -0.62501,0.375 -1.35418,0.583333 -2.1875,0.625 -0.83334,0.04167 -1.62501,0 -2.375,-0.125 -0.41667,-0.583333 -0.79167,-1.312499 -1.125,-2.1875 -0.33334,-0.874997 -0.64584,-1.77083 -0.9375,-2.6875 -0.29167,-0.958328 -0.5625,-1.895827 -0.8125,-2.8125 -0.20834,-0.916658 -0.39584,-1.729158 -0.5625,-2.4375 0.20833,-0.49999 0.33333,-1.062489 0.375,-1.6875 0.0833,-0.666655 0.125,-1.333321 0.125,-2 0.0417,-0.666653 0.0625,-1.333319 0.0625,-2 0.0417,-0.708317 0.10416,-1.374983 0.1875,-2 0.29166,-1.749981 0.70833,-3.416646 1.25,-5 0.58333,-1.583309 1.04166,-3.229141 1.375,-4.9375 0.0833,-0.374972 0.0417,-0.729139 -0.125,-1.0625 -0.12501,-0.333305 -0.14584,-0.645804 -0.0625,-0.9375 0.0417,-0.166637 0.16666,-0.270804 0.375,-0.3125 0.20833,-0.0833 0.33333,-0.229137 0.375,-0.4375 0.12499,-0.458303 0.14583,-0.833302 0.0625,-1.125 -0.0417,-0.291635 0.0417,-0.645801 0.25,-1.0625 0.20833,-0.333301 0.45833,-0.812467 0.75,-1.4375 0.33333,-0.666632 0.45832,-1.354132 0.375,-2.0625 0.37499,-0.249964 0.72916,-0.54163 1.0625,-0.875 0.33332,-0.333296 0.66666,-0.624963 1,-0.875 0.37499,-0.291629 0.77082,-0.541629 1.1875,-0.75 0.45832,-0.208295 0.99999,-0.312461 1.625,-0.3125 0.33332,0.416705 0.54165,0.875038 0.625,1.375 0.12499,0.500037 0.22915,1.000036 0.3125,1.5 0.12499,0.500035 0.29165,0.979201 0.5,1.4375 0.20832,0.416701 0.56248,0.750034 1.0625,1 -2e-5,0.333366 -2e-5,0.750033 0,1.25 -2e-5,0.500032 0.0208,1.000031 0.0625,1.5 0.0417,0.458363 0.12498,0.895863 0.25,1.3125 0.16665,0.375029 0.41665,0.625029 0.75,0.75 -0.75002,2.000027 -1.45835,3.979191 -2.125,5.9375 -0.62501,1.958354 -1.14585,3.937519 -1.5625,5.9375 -0.41668,1.958348 -0.68751,3.937513 -0.8125,5.9375 -0.0833,2.000009 0.0625,4.02084 0.4375,6.0625" />
      <path
         id="path3102"
         style="line-height:125%;font-family:Permanent Marker;-inkscape-font-specification:Permanent Marker;fill:#ff0000;fill-opacity:1"
         d="m 870.36914,54.944328 c -0.37501,0.08335 -0.64584,0.312511 -0.8125,0.6875 -0.16668,0.333344 -0.33334,0.68751 -0.5,1.0625 -0.12501,0.37501 -0.27084,0.729176 -0.4375,1.0625 -0.12501,0.291675 -0.33334,0.437508 -0.625,0.4375 -0.0417,0.333341 -0.16668,0.625008 -0.375,0.875 -0.16668,0.250007 -0.33334,0.52084 -0.5,0.8125 -0.16668,0.250006 -0.29168,0.541673 -0.375,0.875 -0.0833,0.291672 -0.0417,0.645839 0.125,1.0625 -0.33334,0.250005 -0.54167,0.604171 -0.625,1.0625 -0.0833,0.458337 -0.18751,0.895836 -0.3125,1.3125 -0.0833,0.416669 -0.25001,0.770835 -0.5,1.0625 -0.25001,0.291668 -0.70834,0.416668 -1.375,0.375 -0.12501,0.166667 -0.14584,0.270834 -0.0625,0.3125 0.0833,0.04167 0.14583,0.1875 0.1875,0.4375 -0.45834,-0.08333 -0.81251,-0.0625 -1.0625,0.0625 -0.20834,0.166667 -0.47917,0.270833 -0.8125,0.3125 -0.79167,-0.25 -1.45834,-0.687499 -2,-1.3125 -0.5,-0.624998 -0.95833,-1.312498 -1.375,-2.0625 -0.375,-0.791663 -0.72917,-1.583329 -1.0625,-2.375 -0.29167,-0.79166 -0.58333,-1.47916 -0.875,-2.0625 0.125,-0.458325 0.14583,-0.895825 0.0625,-1.3125 -0.0833,-0.458324 -0.22917,-0.833324 -0.4375,-1.125 2.04167,-4.333319 4.27083,-8.958314 6.6875,-13.875 2.41666,-4.916638 4.70832,-9.7708 6.875,-14.5625 0.95832,0.375038 1.89582,0.812538 2.8125,1.3125 0.95832,0.45837 1.81248,1.000036 2.5625,1.625 0.79165,0.625035 1.45831,1.354201 2,2.1875 0.54165,0.791699 0.89581,1.687532 1.0625,2.6875 -0.0833,0.25003 -0.18752,0.354197 -0.3125,0.3125 -0.0833,-0.0833 -0.16669,-0.06247 -0.25,0.0625 0.16665,0.208363 0.24998,0.354197 0.25,0.4375 0.0417,0.08336 0.0417,0.166696 0,0.25 -2e-5,0.08336 -2e-5,0.208363 0,0.375 -2e-5,0.125029 0.0625,0.312529 0.1875,0.5625 -0.16669,-0.04164 -0.29169,-0.0208 -0.375,0.0625 -0.0417,0.08336 -0.16669,0.08336 -0.375,0 0.16665,0.458362 0.20831,0.833361 0.125,1.125 -0.0417,0.291694 -0.12502,0.562527 -0.25,0.8125 -0.12502,0.20836 -0.22919,0.45836 -0.3125,0.75 -0.0833,0.250026 -0.0625,0.583359 0.0625,1 -0.12502,2.5e-5 -0.22919,0.04169 -0.3125,0.125 -0.0417,0.04169 -0.0833,0.104191 -0.125,0.1875 -0.0417,0.04169 -0.10419,0.104191 -0.1875,0.1875 -0.0417,0.04169 -0.12502,0.04169 -0.25,0 0.12498,0.91669 0.16665,1.833356 0.125,2.75 -0.0417,0.916687 -0.0833,1.854187 -0.125,2.8125 -2e-5,0.916685 0.0208,1.89585 0.0625,2.9375 0.0417,1.000015 0.18748,2.041681 0.4375,3.125 1.49998,-0.874986 2.68748,-1.999985 3.5625,-3.375 0.91664,-1.374982 1.64581,-2.916648 2.1875,-4.625 0.58331,-1.708311 1.02081,-3.541642 1.3125,-5.5 0.29164,-1.958305 0.60414,-3.958303 0.9375,-6 0.37497,-0.374967 0.66664,-0.8333 0.875,-1.375 0.20831,-0.541632 0.39581,-1.104132 0.5625,-1.6875 0.16664,-0.624964 0.3333,-1.22913 0.5,-1.8125 0.16664,-0.624962 0.37497,-1.187462 0.625,-1.6875 0.62497,0.08337 1.1458,0.291705 1.5625,0.625 0.4583,0.291705 0.87497,0.625038 1.25,1 0.37497,0.33337 0.7708,0.666703 1.1875,1 0.41663,0.291703 0.93747,0.479202 1.5625,0.5625 0.49996,0.708368 0.9583,1.395868 1.375,2.0625 0.41663,0.6667 0.68746,1.375032 0.8125,2.125 -0.20837,0.333365 -0.37504,0.708364 -0.5,1.125 -0.0834,0.416697 -0.18754,0.833363 -0.3125,1.25 -0.12504,0.416695 -0.2917,0.812528 -0.5,1.1875 -0.20837,0.333361 -0.50004,0.625027 -0.875,0.875 -0.12503,1.083359 -0.2917,2.083358 -0.5,3 -0.1667,0.875023 -0.3542,1.750022 -0.5625,2.625 -0.1667,0.875021 -0.31253,1.791686 -0.4375,2.75 -0.12503,0.916684 -0.1667,1.937517 -0.125,3.0625 -0.33337,0.958348 -0.68753,1.97918 -1.0625,3.0625 -0.37503,1.083345 -0.6667,2.062511 -0.875,2.9375 -0.6667,0.541676 -1.18753,1.187508 -1.5625,1.9375 -0.37503,0.750007 -0.77086,1.500006 -1.1875,2.25 -0.1667,0.166672 -0.27086,0.208339 -0.3125,0.125 -0.0417,-0.08333 -0.18753,-0.145828 -0.4375,-0.1875 0.0416,0.166672 0.0416,0.291672 0,0.375 -0.0417,0.08334 -0.10419,0.166672 -0.1875,0.25 -0.0417,0.04167 -0.0834,0.125005 -0.125,0.25 -3e-5,0.125005 0.0416,0.291671 0.125,0.5 -0.58336,0.250004 -1.10419,0.60417 -1.5625,1.0625 -0.45836,0.458336 -0.95836,0.875002 -1.5,1.25 -0.50002,0.375001 -1.12502,0.625001 -1.875,0.75 -0.70836,0.125001 -1.64585,-0.02083 -2.8125,-0.4375 -1.70835,-1.249997 -3.22918,-2.687496 -4.5625,-4.3125 -1.29168,-1.624993 -2.35418,-3.562491 -3.1875,-5.8125" />
      <path
         id="path3104"
         style="line-height:125%;font-family:Permanent Marker;-inkscape-font-specification:Permanent Marker;fill:#ff0000;fill-opacity:1"
         d="m 931.36914,64.069328 c -2.00004,0.08334 -3.77087,0.04167 -5.3125,-0.125 -1.50003,-0.166664 -2.9792,-0.562497 -4.4375,-1.1875 -0.0834,-0.04166 -0.16669,-0.145829 -0.25,-0.3125 -0.0834,-0.166662 -0.16669,-0.291662 -0.25,-0.375 -0.25003,-0.124995 -0.56253,-0.166662 -0.9375,-0.125 -0.33336,5e-6 -0.62503,-0.04166 -0.875,-0.125 -0.33336,-0.166662 -0.85419,-0.479161 -1.5625,-0.9375 -0.70836,-0.499994 -1.35419,-0.958327 -1.9375,-1.375 -0.75002,-0.583326 -1.45835,-1.166658 -2.125,-1.75 -0.66669,-0.583324 -1.25002,-1.208323 -1.75,-1.875 -0.12502,-0.166656 -0.29168,-0.249989 -0.5,-0.25 -0.20835,-0.04166 -0.39585,-0.104156 -0.5625,-0.1875 -1.20835,0.75001 -2.22918,1.687509 -3.0625,2.8125 -0.83335,1.125007 -1.62501,2.270839 -2.375,3.4375 -0.75001,1.16667 -1.54168,2.270836 -2.375,3.3125 -0.83334,1.041667 -1.89584,1.833333 -3.1875,2.375 -0.37501,-10e-7 -0.70834,-0.0625 -1,-0.1875 -0.29167,-0.125 -0.5625,-0.291667 -0.8125,-0.5 -0.25,-0.166667 -0.5,-0.333333 -0.75,-0.5 -0.25,-0.166666 -0.52084,-0.291666 -0.8125,-0.375 0,-0.499999 -0.10417,-0.958332 -0.3125,-1.375 -0.16667,-0.416664 -0.35417,-0.812497 -0.5625,-1.1875 -0.16667,-0.374996 -0.29167,-0.729163 -0.375,-1.0625 -0.0833,-0.374995 0,-0.729162 0.25,-1.0625 -0.25,-0.249994 -0.625,-0.520827 -1.125,-0.8125 0.25,-0.249993 0.35417,-0.47916 0.3125,-0.6875 0,-0.208326 -0.0417,-0.416659 -0.125,-0.625 -0.0833,-0.208326 -0.16667,-0.437492 -0.25,-0.6875 -0.0417,-0.249991 0.0208,-0.499991 0.1875,-0.75 0.20833,9e-6 0.45833,-0.04166 0.75,-0.125 -0.25,-0.333324 -0.375,-0.520824 -0.375,-0.5625 0.0417,-0.08332 0,-0.18749 -0.125,-0.3125 -0.0833,-0.24999 -0.0417,-0.395823 0.125,-0.4375 0.16667,-0.08332 0.33333,-0.166656 0.5,-0.25 0.16667,-2.041654 0.52083,-3.937485 1.0625,-5.6875 0.54166,-1.749982 1.14583,-3.43748 1.8125,-5.0625 0.66666,-1.624977 1.31249,-3.270809 1.9375,-4.9375 0.66666,-1.666639 1.20833,-3.458303 1.625,-5.375 0.45833,-0.458301 0.81249,-0.999967 1.0625,-1.625 0.29166,-0.624966 0.58332,-1.249965 0.875,-1.875 0.33332,-0.624964 0.68749,-1.22913 1.0625,-1.8125 0.41666,-0.624962 0.97916,-1.124962 1.6875,-1.5 0.58332,0.04171 1.10415,0.208372 1.5625,0.5 0.45832,0.250038 1.02082,0.354204 1.6875,0.3125 0.12498,0.208371 0.22915,0.416704 0.3125,0.625 0.12498,0.20837 0.27082,0.416703 0.4375,0.625 l 0.9375,-0.1875 c 0.45832,0.375036 0.85415,0.854203 1.1875,1.4375 0.37498,0.541701 0.62498,1.125034 0.75,1.75 0.12498,0.625033 0.10415,1.229199 -0.0625,1.8125 -0.16669,0.541698 -0.56252,0.979197 -1.1875,1.3125 0.0417,0.208364 0.0417,0.37503 0,0.5 -2e-5,0.08336 -0.0208,0.166696 -0.0625,0.25 -0.0417,0.08336 -0.0625,0.166696 -0.0625,0.25 -2e-5,0.08336 0.0625,0.208363 0.1875,0.375 -0.83335,0.625028 -1.45835,1.500028 -1.875,2.625 -0.41668,1.125025 -0.64585,2.125024 -0.6875,3 0.49998,-0.499976 1.04165,-0.979142 1.625,-1.4375 0.62498,-0.499975 1.24998,-0.979141 1.875,-1.4375 0.66665,-0.458307 1.29165,-0.895806 1.875,-1.3125 0.62498,-0.416639 1.18748,-0.833305 1.6875,-1.25 1.37498,-1.24997 2.68747,-2.249969 3.9375,-3 1.29164,-0.791634 2.6458,-1.666633 4.0625,-2.625 0.3333,-0.0833 0.5833,-0.0833 0.75,0 0.2083,0.0417 0.41664,0.104201 0.625,0.1875 -3e-5,-0.249965 -0.0834,-0.395799 -0.25,-0.4375 -0.12503,-0.04163 -0.1667,-0.208298 -0.125,-0.5 0.62497,-0.166631 1.16663,-0.354131 1.625,-0.5625 0.4583,-0.249964 0.9583,-0.47913 1.5,-0.6875 0.37497,0.375036 0.72913,0.770869 1.0625,1.1875 0.3333,0.375035 0.79163,0.604201 1.375,0.6875 0.2083,0.458367 0.4583,0.812534 0.75,1.0625 0.29163,0.208367 0.5833,0.4167 0.875,0.625 0.29163,0.208366 0.54163,0.458366 0.75,0.75 0.24996,0.291699 0.39579,0.750031 0.4375,1.375 -0.16671,0.291697 -0.35421,0.604197 -0.5625,0.9375 -0.16671,0.333363 -0.33337,0.729196 -0.5,1.1875 -0.83337,0.750028 -1.68754,1.416694 -2.5625,2 -0.83337,0.583359 -1.68753,1.145859 -2.5625,1.6875 -0.87503,0.541691 -1.77087,1.083357 -2.6875,1.625 -0.9167,0.541689 -1.8542,1.187522 -2.8125,1.9375 -0.20836,0.291688 -0.47919,0.562521 -0.8125,0.8125 -0.29169,0.208354 -0.60419,0.43752 -0.9375,0.6875 -0.33336,0.208353 -0.64586,0.437519 -0.9375,0.6875 -0.29169,0.250019 -0.52086,0.541685 -0.6875,0.875 -0.12502,0.04169 -0.25002,0.06252 -0.375,0.0625 -0.12502,1.8e-5 -0.25002,0.02085 -0.375,0.0625 -0.12502,0.291685 -0.33336,0.520851 -0.625,0.6875 -0.25002,0.166684 -0.41669,0.39585 -0.5,0.6875 0.62498,1.333349 1.43748,2.354181 2.4375,3.0625 0.99997,0.708346 2.12497,1.229179 3.375,1.5625 1.24997,0.291679 2.60414,0.458345 4.0625,0.5 1.4583,1.2e-5 2.97913,1.2e-5 4.5625,0 0.16663,-0.04165 0.22913,-0.124988 0.1875,-0.25 -4e-5,-0.166655 0.10413,-0.229154 0.3125,-0.1875 0.99996,0.333345 1.77079,0.812511 2.3125,1.4375 0.54163,0.583343 1.18746,1.166676 1.9375,1.75 -0.0834,1.583341 -0.56254,2.895839 -1.4375,3.9375 -0.87504,1.041671 -2.04171,1.875003 -3.5,2.5" />
      <path
         id="path3106"
         style="line-height:125%;font-family:Permanent Marker;-inkscape-font-specification:Permanent Marker;fill:#ff0000;fill-opacity:1"
         d="m 948.30664,61.944328 c 0.20832,1.250003 0.12499,2.229169 -0.25,2.9375 -0.33335,0.708334 -0.83334,1.229167 -1.5,1.5625 -0.62501,0.375 -1.35418,0.583333 -2.1875,0.625 -0.83334,0.04167 -1.62501,0 -2.375,-0.125 -0.41667,-0.583333 -0.79167,-1.312499 -1.125,-2.1875 -0.33334,-0.874997 -0.64584,-1.77083 -0.9375,-2.6875 -0.29167,-0.958328 -0.5625,-1.895827 -0.8125,-2.8125 -0.20834,-0.916658 -0.39584,-1.729158 -0.5625,-2.4375 0.20833,-0.49999 0.33333,-1.062489 0.375,-1.6875 0.0833,-0.666655 0.125,-1.333321 0.125,-2 0.0417,-0.666653 0.0625,-1.333319 0.0625,-2 0.0417,-0.708317 0.10416,-1.374983 0.1875,-2 0.29166,-1.749981 0.70833,-3.416646 1.25,-5 0.58333,-1.583309 1.04166,-3.229141 1.375,-4.9375 0.0833,-0.374972 0.0417,-0.729139 -0.125,-1.0625 -0.12501,-0.333305 -0.14584,-0.645804 -0.0625,-0.9375 0.0417,-0.166637 0.16666,-0.270804 0.375,-0.3125 0.20833,-0.0833 0.33333,-0.229137 0.375,-0.4375 0.12499,-0.458303 0.14583,-0.833302 0.0625,-1.125 -0.0417,-0.291635 0.0417,-0.645801 0.25,-1.0625 0.20833,-0.333301 0.45833,-0.812467 0.75,-1.4375 0.33333,-0.666632 0.45832,-1.354132 0.375,-2.0625 0.37499,-0.249964 0.72916,-0.54163 1.0625,-0.875 0.33332,-0.333296 0.66666,-0.624963 1,-0.875 0.37499,-0.291629 0.77082,-0.541629 1.1875,-0.75 0.45832,-0.208295 0.99999,-0.312461 1.625,-0.3125 0.33332,0.416705 0.54165,0.875038 0.625,1.375 0.12499,0.500037 0.22915,1.000036 0.3125,1.5 0.12499,0.500035 0.29165,0.979201 0.5,1.4375 0.20832,0.416701 0.56248,0.750034 1.0625,1 -2e-5,0.333366 -2e-5,0.750033 0,1.25 -2e-5,0.500032 0.0208,1.000031 0.0625,1.5 0.0417,0.458363 0.12498,0.895863 0.25,1.3125 0.16665,0.375029 0.41665,0.625029 0.75,0.75 -0.75002,2.000027 -1.45835,3.979191 -2.125,5.9375 -0.62501,1.958354 -1.14585,3.937519 -1.5625,5.9375 -0.41668,1.958348 -0.68751,3.937513 -0.8125,5.9375 -0.0833,2.000009 0.0625,4.02084 0.4375,6.0625" />
      <path
         id="path3108"
         style="line-height:125%;font-family:Permanent Marker;-inkscape-font-specification:Permanent Marker;fill:#ff0000;fill-opacity:1"
         d="m 968.36914,54.944328 c -0.37501,0.08335 -0.64584,0.312511 -0.8125,0.6875 -0.16668,0.333344 -0.33334,0.68751 -0.5,1.0625 -0.12501,0.37501 -0.27084,0.729176 -0.4375,1.0625 -0.12501,0.291675 -0.33334,0.437508 -0.625,0.4375 -0.0417,0.333341 -0.16668,0.625008 -0.375,0.875 -0.16668,0.250007 -0.33334,0.52084 -0.5,0.8125 -0.16668,0.250006 -0.29168,0.541673 -0.375,0.875 -0.0833,0.291672 -0.0417,0.645839 0.125,1.0625 -0.33334,0.250005 -0.54167,0.604171 -0.625,1.0625 -0.0833,0.458337 -0.18751,0.895836 -0.3125,1.3125 -0.0833,0.416669 -0.25001,0.770835 -0.5,1.0625 -0.25001,0.291668 -0.70834,0.416668 -1.375,0.375 -0.12501,0.166667 -0.14584,0.270834 -0.0625,0.3125 0.0833,0.04167 0.14583,0.1875 0.1875,0.4375 -0.45834,-0.08333 -0.81251,-0.0625 -1.0625,0.0625 -0.20834,0.166667 -0.47917,0.270833 -0.8125,0.3125 -0.79167,-0.25 -1.45834,-0.687499 -2,-1.3125 -0.5,-0.624998 -0.95833,-1.312498 -1.375,-2.0625 -0.375,-0.791663 -0.72917,-1.583329 -1.0625,-2.375 -0.29167,-0.79166 -0.58333,-1.47916 -0.875,-2.0625 0.125,-0.458325 0.14583,-0.895825 0.0625,-1.3125 -0.0833,-0.458324 -0.22917,-0.833324 -0.4375,-1.125 2.04167,-4.333319 4.27083,-8.958314 6.6875,-13.875 2.41666,-4.916638 4.70832,-9.7708 6.875,-14.5625 0.95832,0.375038 1.89582,0.812538 2.8125,1.3125 0.95832,0.45837 1.81248,1.000036 2.5625,1.625 0.79165,0.625035 1.45831,1.354201 2,2.1875 0.54165,0.791699 0.89581,1.687532 1.0625,2.6875 -0.0833,0.25003 -0.18752,0.354197 -0.3125,0.3125 -0.0833,-0.0833 -0.16669,-0.06247 -0.25,0.0625 0.16665,0.208363 0.24998,0.354197 0.25,0.4375 0.0417,0.08336 0.0417,0.166696 0,0.25 -2e-5,0.08336 -2e-5,0.208363 0,0.375 -2e-5,0.125029 0.0625,0.312529 0.1875,0.5625 -0.16669,-0.04164 -0.29169,-0.0208 -0.375,0.0625 -0.0417,0.08336 -0.16669,0.08336 -0.375,0 0.16665,0.458362 0.20831,0.833361 0.125,1.125 -0.0417,0.291694 -0.12502,0.562527 -0.25,0.8125 -0.12502,0.20836 -0.22919,0.45836 -0.3125,0.75 -0.0833,0.250026 -0.0625,0.583359 0.0625,1 -0.12502,2.5e-5 -0.22919,0.04169 -0.3125,0.125 -0.0417,0.04169 -0.0833,0.104191 -0.125,0.1875 -0.0417,0.04169 -0.10419,0.104191 -0.1875,0.1875 -0.0417,0.04169 -0.12502,0.04169 -0.25,0 0.12498,0.91669 0.16665,1.833356 0.125,2.75 -0.0417,0.916687 -0.0833,1.854187 -0.125,2.8125 -2e-5,0.916685 0.0208,1.89585 0.0625,2.9375 0.0417,1.000015 0.18748,2.041681 0.4375,3.125 1.49998,-0.874986 2.68748,-1.999985 3.5625,-3.375 0.91664,-1.374982 1.64581,-2.916648 2.1875,-4.625 0.58331,-1.708311 1.02081,-3.541642 1.3125,-5.5 0.29164,-1.958305 0.60414,-3.958303 0.9375,-6 0.37497,-0.374967 0.66664,-0.8333 0.875,-1.375 0.20831,-0.541632 0.39581,-1.104132 0.5625,-1.6875 0.16664,-0.624964 0.3333,-1.22913 0.5,-1.8125 0.16664,-0.624962 0.37497,-1.187462 0.625,-1.6875 0.62497,0.08337 1.1458,0.291705 1.5625,0.625 0.4583,0.291705 0.87497,0.625038 1.25,1 0.37497,0.33337 0.7708,0.666703 1.1875,1 0.41663,0.291703 0.93747,0.479202 1.5625,0.5625 0.49996,0.708368 0.9583,1.395868 1.375,2.0625 0.41663,0.6667 0.68746,1.375032 0.8125,2.125 -0.20837,0.333365 -0.37504,0.708364 -0.5,1.125 -0.0834,0.416697 -0.18754,0.833363 -0.3125,1.25 -0.12504,0.416695 -0.2917,0.812528 -0.5,1.1875 -0.20837,0.333361 -0.50004,0.625027 -0.875,0.875 -0.12503,1.083359 -0.2917,2.083358 -0.5,3 -0.1667,0.875023 -0.3542,1.750022 -0.5625,2.625 -0.1667,0.875021 -0.31253,1.791686 -0.4375,2.75 -0.12503,0.916684 -0.1667,1.937517 -0.125,3.0625 -0.33337,0.958348 -0.68753,1.97918 -1.0625,3.0625 -0.37503,1.083345 -0.6667,2.062511 -0.875,2.9375 -0.6667,0.541676 -1.18753,1.187508 -1.5625,1.9375 -0.37503,0.750007 -0.77086,1.500006 -1.1875,2.25 -0.1667,0.166672 -0.27086,0.208339 -0.3125,0.125 -0.0417,-0.08333 -0.18753,-0.145828 -0.4375,-0.1875 0.0416,0.166672 0.0416,0.291672 0,0.375 -0.0417,0.08334 -0.10419,0.166672 -0.1875,0.25 -0.0417,0.04167 -0.0834,0.125005 -0.125,0.25 -3e-5,0.125005 0.0416,0.291671 0.125,0.5 -0.58336,0.250004 -1.10419,0.60417 -1.5625,1.0625 -0.45836,0.458336 -0.95836,0.875002 -1.5,1.25 -0.50002,0.375001 -1.12502,0.625001 -1.875,0.75 -0.70836,0.125001 -1.64585,-0.02083 -2.8125,-0.4375 -1.70835,-1.249997 -3.22918,-2.687496 -4.5625,-4.3125 -1.29168,-1.624993 -2.35418,-3.562491 -3.1875,-5.8125" />
      <path
         id="path3110"
         style="line-height:125%;font-family:Permanent Marker;-inkscape-font-specification:Permanent Marker;fill:#ff0000;fill-opacity:1"
         d="m 1035.9941,55.069328 c -1,1.791676 -2.3125,3.187508 -3.9375,4.1875 -1.625,0.95834 -3.4167,1.770839 -5.375,2.4375 -1.9583,0.625004 -4.0208,1.187504 -6.1875,1.6875 -2.125,0.500003 -4.1875,1.145835 -6.1875,1.9375 -0.5833,10e-7 -1.1041,0.02084 -1.5625,0.0625 -0.4166,0.04167 -0.8333,0.104168 -1.25,0.1875 -0.375,0.04167 -0.75,0.104168 -1.125,0.1875 -0.375,0.04167 -0.7916,0.08333 -1.25,0.125 -0.1666,-0.04167 -0.2708,10e-7 -0.3125,0.125 -0.042,0.08333 -0.1041,0.166667 -0.1875,0.25 -0.7083,0.125 -1.3541,0.1875 -1.9375,0.1875 -0.5416,0 -1,0 -1.375,0 -0.5,0 -1.0208,0.0625 -1.5625,0.1875 -0.5,0.166666 -0.9583,0.229166 -1.375,0.1875 -3.12497,-0.166667 -5.5833,-1.270832 -7.37496,-3.3125 -1.75,-2.083328 -2.72917,-4.958325 -2.9375,-8.625 0.0417,-0.208321 0,-0.333321 -0.125,-0.375 -0.0833,-0.04165 -0.16667,-0.104154 -0.25,-0.1875 0,-0.416654 0.0417,-0.77082 0.125,-1.0625 0.125,-0.291653 0.14583,-0.666653 0.0625,-1.125 1.08333,-2.29165 2.3125,-4.416648 3.6875,-6.375 1.375,-1.999977 3.02083,-3.749975 4.93746,-5.25 0.2917,-0.249974 0.5417,-0.499973 0.75,-0.75 0.2084,-0.249973 0.3959,-0.499973 0.5625,-0.75 0.2084,-0.249972 0.4375,-0.458305 0.6875,-0.625 0.25,-0.208305 0.5625,-0.354138 0.9375,-0.4375 0.875,-0.99997 1.9167,-1.916636 3.125,-2.75 1.2084,-0.833301 2.4792,-1.624967 3.8125,-2.375 1.3334,-0.791632 2.6459,-1.562465 3.9375,-2.3125 1.3333,-0.79163 2.5417,-1.666629 3.625,-2.625 0.4583,0.208372 0.7917,0.270872 1,0.1875 0.2083,-0.08329 0.4375,-0.08329 0.6875,0 0.2917,0.625038 0.6875,1.062537 1.1875,1.3125 0.5417,0.250037 1.0625,0.52087 1.5625,0.8125 0.5417,0.250036 1.0417,0.562536 1.5,0.9375 0.4583,0.375035 0.8125,0.875035 1.0625,1.5 -0.25,3.4e-5 -0.375,0.104201 -0.375,0.3125 0.042,0.1667 0.1042,0.3542 0.1875,0.5625 0.083,0.1667 0.1042,0.354199 0.062,0.5625 0,0.166699 -0.1458,0.250032 -0.4375,0.25 0.042,0.208365 0.1667,0.333365 0.375,0.375 0.25,3.2e-5 0.375,0.104198 0.375,0.3125 0,0.208365 -0.062,0.375031 -0.1875,0.5 -0.083,0.125031 -0.083,0.333364 0,0.625 -0.8333,0.541697 -1.7708,1.062529 -2.8125,1.5625 -1,0.500028 -2.0625,1.041695 -3.1875,1.625 -1.0833,0.541693 -2.2292,1.145859 -3.4375,1.8125 -1.1666,0.625025 -2.3125,1.354191 -3.4375,2.1875 -1.125,0.833356 -2.2708,1.770855 -3.4375,2.8125 -1.1666,1.000019 -2.2916,2.062518 -3.375,3.1875 -1.0833,1.125016 -2.1041,2.291682 -3.0625,3.5 -0.9583,1.166679 -1.7708,2.333345 -2.43746,3.5 0.0833,0.208343 0.16666,0.37501 0.25,0.5 0.12496,0.08334 0.22916,0.229176 0.31246,0.4375 1.3334,0.08334 2.5625,0.08334 3.6875,0 1.1667,-0.124991 2.3334,-0.06249 3.5,0.1875 0.125,-0.08332 0.2084,-0.208324 0.25,-0.375 0.042,-0.166657 0.1459,-0.291657 0.3125,-0.375 2.375,-0.24999 4.5834,-0.624989 6.625,-1.125 2.0417,-0.541655 4.125,-1.104155 6.25,-1.6875 -0.3333,-0.124987 -0.6458,-0.229154 -0.9375,-0.3125 -0.25,-0.124987 -0.5,-0.229153 -0.75,-0.3125 -0.2083,-0.20832 -0.2083,-0.374986 0,-0.5 0.25,-0.166653 0.4583,-0.333319 0.625,-0.5 -0.5833,-0.333319 -1.0625,-0.749985 -1.4375,-1.25 -0.3333,-0.499984 -0.5417,-1.16665 -0.625,-2 0.25,-0.208316 0.375,-0.458315 0.375,-0.75 0,-0.291648 -0.125,-0.520814 -0.375,-0.6875 -0.1667,-0.04165 -0.2708,-0.04165 -0.3125,0 -0.042,0.04169 -0.083,0.104186 -0.125,0.1875 0,0.08335 -0.021,0.166685 -0.062,0.25 -0.042,0.04169 -0.1458,0.02085 -0.3125,-0.0625 0.042,-0.374981 0.125,-0.687481 0.25,-0.9375 0.1667,-0.24998 0.2917,-0.541647 0.375,-0.875 l 4.3125,-2.875 c 0.4583,0.333356 1.0208,0.708356 1.6875,1.125 0.6667,0.375022 1.3542,0.770855 2.0625,1.1875 0.75,0.375021 1.5,0.770854 2.25,1.1875 0.7917,0.375019 1.5208,0.750019 2.1875,1.125 0.5833,0.250018 1.1042,0.583351 1.5625,1 0.4583,0.416684 0.8958,0.854184 1.3125,1.3125 0.4167,0.416683 0.8333,0.833349 1.25,1.25 0.4583,0.416681 0.9792,0.770848 1.5625,1.0625 -0.083,0.54168 -0.062,0.97918 0.062,1.3125 0.125,0.333346 0.1667,0.750012 0.125,1.25" />
    </g>
  </g>
</svg>
